<?xml version="1.0" encoding="utf-8"?>
<!-- Generator: Adobe Illustrator 25.2.0, SVG Export Plug-In . SVG Version: 6.00 Build 0)  -->
<svg version="1.1" id="Layer_1" xmlns="http://www.w3.org/2000/svg" xmlns:xlink="http://www.w3.org/1999/xlink" x="0px" y="0px"
	 viewBox="0 0 595.276 135.232" style="enable-background:new 0 0 595.276 135.232;" xml:space="preserve">
<style type="text/css">
	.st0{fill:#76D4FB;}
</style>
<g>
	<path class="st0" d="M597.746,142.74c0.002,1.603-0.315,1.917-1.919,1.917c-198.636-0.046-397.272-0.046-595.908,0
		c-1.604,0-1.924-0.313-1.92-1.917c0.066-24.35,0.046-48.7,0.046-73.051c0.847-0.115,1.69-0.286,2.541-0.337
		c20.058-1.19,39.336,2.421,58.019,9.545c12.977,4.948,25.864,10.14,38.893,14.946c8.875,3.274,18.034,5.615,27.492,6.581
		c9.249,0.946,18.302,0.526,26.562-4.357c7.458-4.408,15.01-8.696,22.175-13.547c10.075-6.821,19.809-14.144,29.729-21.196
		c16.562-11.773,34.173-21.343,54.404-25.157c12.399-2.338,24.742-2.715,37.088,0.859c10.857,3.144,21.244,7.396,31.266,12.495
		c18.852,9.592,37.549,19.488,56.334,29.211c9.648,4.994,19.499,9.549,30.023,12.406c5.283,1.434,10.629,2.208,16.18,1.175
		c11.603-2.16,22.181-6.721,32.217-12.813c10.658-6.469,22.191-10.503,34.522-12.661c14.786-2.588,29.408-3.223,44.123,0.398
		c10.06,2.475,19.637,6.168,29.111,10.256c8.243,3.557,16.524,7.068,25.666,7.642c2.769,0.174,2.774,0.171,2.775-2.655
		 M281.473,59.195c-0.693-0.292-0.954-0.471-1.235-0.509c-1.775-0.241-3.548-0.536-5.332-0.656
		c-12.667-0.857-24.604,1.966-36.099,7.125c-13.227,5.936-25.127,14.111-37.261,21.895c-0.193,0.124-0.272,0.424-0.404,0.642
		c0.281-0.105,0.578-0.179,0.84-0.319c8.45-4.532,16.878-9.106,25.348-13.599c10.858-5.76,22.044-10.76,34.285-12.683
		c6.065-0.953,12.245-1.176,18.372-1.731C280.334,59.326,280.68,59.282,281.473,59.195z M128.42,108.911
		c4.491-0.469,8.984-0.924,13.472-1.43c0.459-0.052,0.883-0.412,1.323-0.629c-0.464-0.018-0.93-0.077-1.391-0.048
		c-17.523,1.092-34.26-1.964-50.526-8.636c-7.239-2.969-15.015-4.638-22.57-6.82c-1.158-0.335-2.436-0.256-3.659-0.368
		c1.182,0.353,2.39,0.638,3.543,1.071c7.809,2.929,15.653,5.772,23.395,8.867C103.703,105.593,115.651,108.912,128.42,108.911z
		 M592.852,92.458c1.092,0,2.19,0.064,3.273-0.039c0.332-0.031,0.62-0.521,0.928-0.801c-0.312-0.267-0.586-0.667-0.945-0.771
		c-0.51-0.147-1.084-0.057-1.628-0.1c-5.451-0.434-10.914-0.877-15.994-3.13c-4.272-1.894-8.411-4.104-12.741-5.846
		c-2.996-1.205-6.211-1.875-9.347-2.717c-0.352-0.094-0.821,0.252-1.236,0.394c0.33,0.257,0.626,0.586,0.995,0.758
		c4.157,1.944,8.337,3.837,12.487,5.795C576.325,89.628,584.234,92.38,592.852,92.458z M286.145,43.221
		c-3.107,0.224-6.215,0.439-9.32,0.684c-0.341,0.027-0.669,0.224-1.003,0.342c0.337,0.152,0.666,0.411,1.013,0.44
		c2.873,0.241,5.753,0.659,8.624,0.608c8.334-0.148,16.254,1.749,23.97,4.621c5.182,1.929,10.262,4.133,15.391,6.206
		c0.273,0.11,0.574,0.152,0.861,0.225c-0.231-0.232-0.42-0.551-0.699-0.684c-4.433-2.111-8.813-4.348-13.332-6.257
		C303.51,45.965,295.256,42.85,286.145,43.221z M451.263,92.553c-0.512,0.029-0.667-0.001-0.785,0.052
		c-0.354,0.159-0.695,0.348-1.039,0.528c-8.153,4.265-16.667,7.309-25.976,7.657c-1.632,0.061-3.267,0.087-4.896,0.187
		c-0.417,0.026-0.821,0.274-1.231,0.42c0.359,0.34,0.663,0.814,1.09,0.988c0.635,0.26,1.359,0.439,2.041,0.424
		c2.561-0.056,5.144-0.018,7.674-0.352C436.644,101.333,444.059,97.609,451.263,92.553z M21.06,77.948
		c-0.465,0.345-1.826,0.843-2.181,1.739c-0.5,1.263,1.207,2.815,2.883,2.989c0.46,0.048,0.947,0.06,1.394-0.037
		c4.957-1.075,9.741-0.515,14.394,1.44c0.33,0.139,0.72,0.137,1.082,0.2c-0.242-0.261-0.443-0.586-0.733-0.773
		C33.022,80.356,27.586,78.856,21.06,77.948z M165.101,96.757c0.488-0.157,1.014-0.303,1.524-0.492
		c7.521-2.785,13.857-7.359,19.505-12.959c0.287-0.285,0.424-0.72,0.632-1.085c-0.398,0.188-0.826,0.331-1.19,0.571
		c-5.838,3.87-11.661,7.764-17.507,11.623c-0.972,0.642-2.043,1.134-3.053,1.721c-0.168,0.098-0.259,0.328-0.385,0.497
		C164.771,96.67,164.915,96.708,165.101,96.757z M392.208,97.407c-0.105,0.41-0.345,0.833-0.229,0.983
		c0.518,0.672,1.059,1.372,1.732,1.872c3.949,2.935,8.455,4.608,13.218,5.662c0.216,0.048,0.445,0.032,0.668,0.046
		c-0.252-0.215-0.475-0.482-0.759-0.637c-4.434-2.41-8.876-4.805-13.317-7.204C393.18,97.944,392.841,97.755,392.208,97.407z
		 M444.171,106.319c0.732-0.094,1.121-0.128,1.504-0.195c4.473-0.775,7.829-3.703,11.517-5.989c0.169-0.105,0.246-0.359,0.365-0.544
		c-0.348,0.056-0.723,0.045-1.039,0.177c-4.081,1.7-8.159,3.408-12.222,5.149c-0.446,0.191-0.8,0.595-1.196,0.901
		C443.545,106.026,443.99,106.234,444.171,106.319z M537.562,73.053c-0.034,0.096-0.069,0.193-0.103,0.289
		c-0.309,0-0.663-0.098-0.919,0.019c-0.623,0.285-1.201,0.669-1.797,1.014c0.616,0.325,1.21,0.87,1.851,0.934
		c2.224,0.22,4.465,0.276,6.7,0.383c0.222,0.011,0.448-0.059,0.672-0.091c-0.166-0.21-0.292-0.538-0.505-0.611
		C541.503,74.319,539.53,73.693,537.562,73.053z M474.537,81.746c-0.018-0.209-0.036-0.417-0.054-0.626
		c-0.528-0.093-1.218-0.446-1.558-0.235c-2.168,1.342-4.262,2.804-6.367,4.246c-0.136,0.093-0.163,0.346-0.24,0.525
		c0.206-0.073,0.418-0.134,0.618-0.222c2.057-0.899,4.122-1.783,6.163-2.718C473.618,82.478,474.06,82.073,474.537,81.746z"/>
	<path class="st0" d="M125.454,93.915c-8.471-0.113-16.792-1.102-24.621-4.593c-1.232-0.55-2.249-1.584-3.365-2.394
		c1.216,0.243,2.451,0.416,3.645,0.741c11.589,3.149,23.336,3.761,35.226,2.304c3.091-0.379,6.191-0.689,9.29-1.004
		c0.335-0.034,0.687,0.11,1.032,0.172c-0.303,0.22-0.577,0.558-0.915,0.642c-5.204,1.286-10.404,2.594-15.634,3.766
		C128.607,93.885,127.009,93.805,125.454,93.915z"/>
	<path class="st0" d="M520.42,53.3c-3.847-0.512-6.885-0.784-9.87-1.34c-7.385-1.377-13.861,0.841-19.989,4.714
		c-0.902,0.57-1.964,0.886-2.952,1.32c0.705-0.806,1.332-1.7,2.128-2.403c6.683-5.9,14.294-8.268,23.187-6.337
		c4.555,0.989,9.209,1.519,13.816,2.269c0.257,0.042,0.495,0.199,0.742,0.303c-0.235,0.179-0.45,0.478-0.707,0.519
		C524.405,52.726,522.025,53.064,520.42,53.3z"/>
	<path class="st0" d="M277.31,21.608c7.901,0.017,15.213,2.631,22.565,4.917c6.765,2.103,13.442,4.489,20.147,6.782
		c0.555,0.19,1.025,0.625,1.535,0.946c-0.582-0.071-1.189-0.059-1.742-0.226c-9.089-2.76-18.149-5.622-27.263-8.295
		c-7.41-2.173-14.993-2.735-22.681-1.88c-0.766,0.085-1.575-0.219-2.363-0.342c0.718-0.364,1.405-0.942,2.16-1.053
		C272.202,22.084,274.76,21.878,277.31,21.608z"/>
	<path class="st0" d="M7.876,53.614c3.713,0.601,8.439,0.898,12.881,2.18c10.03,2.895,19.921,6.27,29.86,9.479
		c0.517,0.167,0.949,0.598,1.42,0.906c-0.589-0.112-1.194-0.17-1.764-0.343c-8.728-2.645-17.429-5.379-26.182-7.938
		c-7.419-2.169-15.003-2.804-22.697-1.853c-0.386,0.048-0.789,0.117-1.164,0.054c-0.391-0.065-0.759-0.277-1.136-0.425
		c0.3-0.213,0.575-0.552,0.905-0.617C2.283,54.605,4.58,54.209,7.876,53.614z"/>
	<path class="st0" d="M587.171,73.855c-8.165-0.237-15.738-2.149-21.992-7.777c-0.391-0.352-0.718-0.776-1.074-1.167
		c0.555,0.072,1.182,0,1.654,0.236c7.145,3.581,14.588,6.274,22.471,7.712c0.505,0.092,0.948,0.526,1.42,0.801
		c-0.515,0.085-1.028,0.193-1.546,0.244C587.797,73.935,587.482,73.875,587.171,73.855z"/>
	<path class="st0" d="M186.27,64.665c-0.162,0.155-0.318,0.323-0.493,0.468c-7.571,6.23-14.957,12.723-23.996,16.865
		c-0.495,0.227-0.985,0.48-1.502,0.639c-0.336,0.103-0.717,0.057-1.079,0.078c0.231-0.28,0.413-0.634,0.701-0.831
		c8.289-5.663,16.587-11.312,24.892-16.951c0.379-0.257,0.831-0.408,1.259-0.586C186.074,64.337,186.184,64.537,186.27,64.665z"/>
	<path class="st0" d="M439.654,83.04c-1.109-0.519-2.218-1.038-3.327-1.557c1.066-0.485,2.108-1.033,3.203-1.442
		c3.249-1.213,6.514-2.38,9.782-3.539c0.473-0.168,0.996-0.195,1.497-0.288c-0.213,0.456-0.315,1.03-0.656,1.349
		C447.225,80.299,444.17,82.816,439.654,83.04z"/>
	<path class="st0" d="M141.961,74.575c2.185-0.464,4.368-0.945,6.56-1.374c0.297-0.058,0.645,0.143,0.969,0.225
		c-0.158,0.247-0.26,0.575-0.483,0.73c-2.512,1.746-5.132,3.253-8.342,3.071c-1.139-0.064-2.668-0.07-2.445-1.676
		c0.076-0.545,1.619-0.93,2.529-1.293c0.327-0.13,0.764,0.017,1.152,0.038C141.92,74.389,141.94,74.482,141.961,74.575z"/>
</g>
</svg>
