<?xml version="1.0" encoding="utf-8"?>
<!-- Generator: Adobe Illustrator 25.2.0, SVG Export Plug-In . SVG Version: 6.00 Build 0)  -->
<svg version="1.1" id="Layer_1" xmlns="http://www.w3.org/2000/svg" xmlns:xlink="http://www.w3.org/1999/xlink" x="0px" y="0px"
	 viewBox="0 0 599.7 146.7" style="enable-background:new 0 0 599.7 146.7;" xml:space="preserve">
<style type="text/css">
	.st0{fill:#FFFFFF;}
</style>
<path class="st0" d="M600.4,179.6c0,1.6-0.9,2-2.5,2c-198.7,0-398-0.5-596.7-0.5c-1.6,0-1.9-0.3-1.9-1.9c0.1-24.4,0.1-48.7,0-73.1
	c0.8-0.1,1.7-0.3,2.5-0.3c20.1-1.2,39.9,2.9,58.6,10c13,4.9,25.9,10.1,38.9,14.9c8.9,3.3,18.1,5.6,27.5,6.6
	c9.3,0.9,18.3,0.5,26.6-4.4c7.5-4.4,15-8.7,22.2-13.5c10.1-6.8,19.8-14.1,29.7-21.2c16.6-11.8,34.2-21.3,54.4-25.2
	c12.4-2.3,24.8-2.7,37.1,0.9c10.8,3.2,21.3,7.4,31.3,12.5c18.9,9.6,37.6,19.5,56.4,29.2c9.7,5,19.5,9.5,30,12.4
	c5.3,1.4,10.6,2.2,16.2,1.2c11.6-2.2,22.2-6.7,32.2-12.8c10.6-6.4,22.3-10.7,34.5-12.7c14.8-2.6,29.4-3.2,44.1,0.4
	c10,2.6,19.7,6,29.1,10.3c8.2,3.6,16.5,7.1,25.7,7.6c2.8,0.2,3.4,0.1,3.4-2.8 M283.4,96.2c-0.4-0.2-0.8-0.4-1.2-0.5
	c-1.8-0.2-3.5-0.5-5.3-0.7c-12.7-0.9-24.6,2-36.1,7.1c-13.2,5.9-25.1,14.1-37.3,21.9c-0.2,0.1-0.3,0.4-0.4,0.6
	c0.3-0.1,0.6-0.2,0.8-0.3c8.5-4.5,16.9-9.1,25.4-13.6c10.9-5.8,22.1-10.8,34.3-12.7c6.1-1,12.2-1.2,18.4-1.7
	C282.3,96.3,282.6,96.3,283.4,96.2z M130.3,145.9c4.5-0.5,9-0.9,13.5-1.4c0.5-0.1,0.9-0.3,1.3-0.6c-0.5,0-0.9-0.1-1.4,0
	c-17.3,1-34.6-1.9-50.5-8.6c-7.2-3-15-4.6-22.6-6.8c-1.2-0.2-2.4-0.4-3.7-0.4c1.2,0.4,2.4,0.6,3.5,1.1c7.8,2.9,15.7,5.8,23.4,8.9
	C105.6,142.6,117.5,145.9,130.3,145.9z M594.9,129.5c1.1,0,2.8,0,3.9-0.2c0.3,0,0.6-0.5,0.9-0.8c-0.3-0.3-0.6-0.7-0.9-0.8
	c-0.5-0.1-1.7,0-2.2,0c-5.5-0.4-10.9-0.9-16-3.1c-4.3-1.9-8.4-4.1-12.7-5.8c-3.1-1.1-6.2-2-9.3-2.7c-0.4-0.1-0.8,0.3-1.2,0.4
	c0.3,0.3,0.6,0.5,1,0.8c4.2,1.9,8.3,3.8,12.5,5.8C578.4,126.6,586.3,129.4,594.9,129.5z M288.1,80.2c-3.1,0.2-6.2,0.4-9.3,0.7
	c-0.3,0.1-0.7,0.2-1,0.3c0.3,0.2,0.7,0.3,1,0.4c2.9,0.3,5.7,0.6,8.6,0.6c8.3-0.1,16.3,1.7,24,4.6c5.2,1.9,10.3,4.1,15.4,6.2
	c0.3,0.1,0.6,0.2,0.9,0.2c-0.2-0.2-0.4-0.6-0.7-0.7c-4.4-2.1-8.8-4.3-13.3-6.3C305.4,83,297.2,79.8,288.1,80.2z M453.3,129.6
	c-0.3,0-0.5,0-0.8,0.1c-0.4,0.2-0.7,0.3-1,0.5c-8.2,4.3-16.7,7.3-26,7.7c-1.6,0.1-3.3,0.1-4.9,0.2c-0.4,0.1-0.8,0.2-1.2,0.4
	c0.4,0.3,0.7,0.8,1.1,1c0.6,0.3,1.3,0.4,2,0.4c2.6,0,5.1-0.1,7.7-0.4C438.6,138.3,446,134.6,453.3,129.6z M22.9,114.9
	c-0.5,0.3-1.8,0.8-2.2,1.7c-0.5,1.3,1.2,2.8,2.9,3c0.5,0.1,0.9,0,1.4,0c4.8-1,9.9-0.5,14.4,1.4c0.4,0.1,0.7,0.2,1.1,0.2
	c-0.2-0.3-0.5-0.5-0.7-0.8C34.9,117.4,29.4,115.9,22.9,114.9z M167,133.8c0.5-0.2,1-0.3,1.5-0.5c7.4-2.9,14-7.3,19.5-13
	c0.3-0.3,0.5-0.7,0.6-1.1c-0.4,0.2-0.8,0.4-1.2,0.6c-5.8,3.9-11.7,7.8-17.5,11.6c-1,0.6-2,1.1-3.1,1.7c-0.2,0.1-0.3,0.3-0.4,0.5
	L167,133.8z M394.2,134.4c-0.1,0.4-0.3,0.8-0.2,1c0.5,0.7,1.1,1.3,1.7,1.9c4,2.8,8.5,4.7,13.2,5.7c0.2,0,0.4,0,0.7,0
	c-0.2-0.2-0.5-0.5-0.8-0.6c-4.4-2.4-8.9-4.8-13.3-7.2C395.1,134.9,394.8,134.8,394.2,134.4L394.2,134.4z M446.2,143.3
	c0.7-0.1,1.1-0.1,1.5-0.2c4.5-0.8,7.8-3.7,11.5-6c0.2-0.1,0.2-0.4,0.4-0.5c-0.4,0-0.7,0.1-1,0.2c-4.1,1.7-8.2,3.4-12.2,5.1
	c-0.4,0.3-0.8,0.6-1.2,0.9L446.2,143.3z M539.6,110.1l-0.1,0.3c-0.3-0.1-0.6,0-0.9,0c-0.6,0.3-1.2,0.7-1.8,1
	c0.6,0.4,1.2,0.7,1.9,0.9c2.2,0.2,4.5,0.3,6.7,0.4c0.2,0,0.5,0,0.7-0.1c-0.2-0.2-0.3-0.5-0.5-0.6
	C543.5,111.3,541.6,110.7,539.6,110.1L539.6,110.1z M476.5,118.7l-0.1-0.6c-0.5-0.1-1.2-0.4-1.6-0.2c-2.2,1.3-4.3,2.8-6.4,4.2
	c-0.1,0.1-0.2,0.3-0.2,0.5c0.2-0.1,0.4-0.1,0.6-0.2c2.1-0.9,4.1-1.8,6.2-2.7C475.6,119.4,476.1,119.1,476.5,118.7L476.5,118.7z"/>
<path class="st0" d="M127.5,129.9c-8.5-0.1-16.8-1.1-24.6-4.6c-1.2-0.7-2.3-1.5-3.4-2.4c1.2,0.2,2.5,0.4,3.6,0.7
	c11.5,3.1,23.4,3.8,35.2,2.3c3.1-0.4,6.2-0.7,9.3-1c0.3,0,0.7,0.1,1,0.2c-0.3,0.2-0.6,0.6-0.9,0.6c-5.2,1.3-10.4,2.6-15.6,3.8
	C130.6,129.8,129,129.9,127.5,129.9z"/>
<path class="st0" d="M522.4,89.3c-3.8-0.5-6.9-0.8-9.9-1.3c-7.4-1.4-13.9,0.8-20,4.7c-0.9,0.5-1.9,1-3,1.3c0.7-0.8,1.4-1.6,2.1-2.4
	c6.7-5.9,14.3-8.3,23.2-6.3c4.6,1,9.2,1.5,13.8,2.3c0.3,0.1,0.5,0.2,0.7,0.3c-0.2,0.2-0.5,0.5-0.7,0.5
	C526.4,88.7,524,89.1,522.4,89.3z"/>
<path class="st0" d="M279.3,57.6c7.9,0,15.2,2.6,22.6,4.9c6.8,2.1,13.4,4.5,20.1,6.8c0.5,0.3,1.1,0.6,1.5,0.9
	c-0.6,0-1.2-0.1-1.7-0.2c-9.1-2.8-18.1-5.6-27.3-8.3c-7.4-2.1-15.1-2.8-22.7-1.9c-0.8,0-1.6-0.1-2.4-0.3c0.7-0.5,1.4-0.8,2.2-1.1
	C274.2,58.1,276.8,57.9,279.3,57.6z"/>
<path class="st0" d="M9.9,89.6c3.7,0.6,8.4,0.9,12.9,2.2c10,2.9,19.9,6.3,29.9,9.5c0.5,0.2,1,0.5,1.4,0.9c-0.6-0.1-1.2-0.2-1.8-0.3
	c-8.7-2.6-17.4-5.4-26.2-7.9C18.7,91.7,11,91.1,3.4,92c-0.4,0.1-0.8,0.1-1.2,0.1c-0.4-0.1-0.8-0.2-1.1-0.4c0.3-0.2,0.6-0.6,0.9-0.6
	C4.3,90.6,6.6,90.2,9.9,89.6z"/>
<path class="st0" d="M589.2,109.9c-8.2-0.2-15.7-2.1-22-7.8c-0.4-0.4-0.7-0.8-1.1-1.2c0.6,0,1.1,0.1,1.7,0.2
	c7.1,3.6,14.7,6.2,22.5,7.7c0.5,0.2,1,0.5,1.4,0.8c-0.5,0.1-1,0.2-1.5,0.2C589.8,109.9,589.5,109.9,589.2,109.9z"/>
<path class="st0" d="M188.3,100.7c-0.2,0.2-0.3,0.3-0.5,0.5c-7.6,6.2-15,12.7-24,16.9c-0.5,0.2-1,0.5-1.5,0.6
	c-0.4,0.1-0.7,0.1-1.1,0.1c0.2-0.3,0.4-0.6,0.7-0.8c8.3-5.7,16.6-11.3,24.9-17c0.4-0.2,0.8-0.4,1.3-0.6
	C188.1,100.3,188.2,100.5,188.3,100.7z"/>
<path class="st0" d="M441.7,119l-3.3-1.6c1.1-0.5,2.1-1,3.2-1.4c3.2-1.2,6.5-2.4,9.8-3.5c0.5-0.1,1-0.2,1.5-0.3
	c-0.1,0.5-0.4,0.9-0.7,1.3C449.2,116.3,446.2,118.8,441.7,119z"/>
<path class="st0" d="M144,110.6c2.2-0.5,4.4-0.9,6.6-1.4c0.3,0,0.7,0.1,1,0.2c-0.2,0.2-0.3,0.6-0.5,0.7c-2.5,1.7-5.1,3.3-8.3,3.1
	c-1.1-0.1-2.7-0.1-2.4-1.7c0.1-0.5,1.6-0.9,2.5-1.3c0.4-0.1,0.8,0,1.2,0L144,110.6z"/>
</svg>
